<?xml version="1.0" encoding="UTF-8"?>
<svg xmlns="http://www.w3.org/2000/svg" xmlns:xlink="http://www.w3.org/1999/xlink" width="567.87pt" height="307.72pt" viewBox="0 0 567.87 307.72" version="1.1">
<defs>
<clipPath id="clip1">
  <path d="M 0 265 L 37 265 L 37 307.71875 L 0 307.71875 Z M 0 265 "/>
</clipPath>
<clipPath id="clip2">
  <path d="M 72 266 L 111 266 L 111 307.71875 L 72 307.71875 Z M 72 266 "/>
</clipPath>
<clipPath id="clip3">
  <path d="M 139 265 L 180 265 L 180 307.71875 L 139 307.71875 Z M 139 265 "/>
</clipPath>
<clipPath id="clip4">
  <path d="M 178 244 L 226 244 L 226 307.71875 L 178 307.71875 Z M 178 244 "/>
</clipPath>
<clipPath id="clip5">
  <path d="M 451 244 L 499 244 L 499 307.71875 L 451 307.71875 Z M 451 244 "/>
</clipPath>
<clipPath id="clip6">
  <path d="M 224 0 L 567.871094 0 L 567.871094 306 L 224 306 Z M 224 0 "/>
</clipPath>
</defs>
<g id="surface1">
<g clip-path="url(#clip1)" clip-rule="nonzero">
<path style=" stroke:none;fill-rule:nonzero;fill:rgb(50.19989%,50.999451%,52.198792%);fill-opacity:1;" d="M 35.007813 272.777344 C 32.578125 271.613281 28.972656 270.566406 24.445313 270.566406 C 12.140625 270.566406 6.152344 279.632813 6.152344 289.140625 C 6.152344 298.023438 12.074219 302.269531 19.976563 302.269531 C 21.199219 302.269531 23.570313 302.140625 24.789063 301.742188 L 27.46875 289.265625 L 18.988281 289.265625 L 20.148438 284.5 L 34.257813 284.5 L 29.554688 306.160156 C 26.878906 306.734375 23.867188 307.382813 19.046875 307.382813 C 8.242188 307.382813 0 301.679688 0 288.855469 C 0 278.929688 6.851563 265.457031 24.328125 265.457031 C 30.367188 265.457031 34.019531 266.671875 36.753906 267.777344 L 35.007813 272.777344 "/>
</g>
<path style=" stroke:none;fill-rule:nonzero;fill:rgb(50.19989%,50.999451%,52.198792%);fill-opacity:1;" d="M 47.898438 283.570313 L 52.484375 283.570313 C 56.609375 283.570313 62.765625 282.234375 62.765625 276.835938 C 62.765625 272.597656 60.386719 271.265625 55.910156 271.265625 L 50.507813 271.265625 Z M 45.8125 266.152344 L 53.761719 266.152344 C 59.457031 266.152344 68.925781 266.152344 68.925781 276.023438 C 68.925781 281.59375 64.445313 286.183594 59.046875 286.996094 C 62.125 288.910156 63 295 63.804688 298.144531 L 66.011719 306.679688 L 59.863281 306.679688 L 57.421875 296.054688 C 55.910156 289.546875 54.921875 288.683594 51.90625 288.683594 L 46.742188 288.683594 L 42.96875 306.679688 L 37.15625 306.679688 L 45.8125 266.152344 "/>
<g clip-path="url(#clip2)" clip-rule="nonzero">
<path style=" stroke:none;fill-rule:nonzero;fill:rgb(50.19989%,50.999451%,52.198792%);fill-opacity:1;" d="M 104.796875 289.953125 C 102.070313 302.269531 96.320313 307.382813 87.03125 307.382813 C 75.769531 307.382813 72.746094 299.480469 72.746094 295.125 C 72.746094 292.34375 73.617188 288.617188 74.136719 286.066406 L 78.441406 266.152344 L 84.25 266.152344 L 79.023438 290.589844 C 78.730469 292.046875 78.558594 293.320313 78.558594 294.195313 C 78.558594 299.480469 82.324219 302.269531 87.378906 302.269531 C 95.972656 302.269531 98.289063 293.5 99.746094 286.707031 L 104.21875 266.152344 L 110.015625 266.152344 L 104.796875 289.953125 "/>
</g>
<path style=" stroke:none;fill-rule:nonzero;fill:rgb(50.19989%,50.999451%,52.198792%);fill-opacity:1;" d="M 119.019531 285.375 L 122.097656 285.375 C 128.078125 285.375 134.285156 284.152344 134.285156 277.589844 C 134.285156 271.960938 129.988281 271.265625 125.117188 271.265625 L 122.097656 271.265625 Z M 117.335938 266.152344 L 127.441406 266.152344 C 133.476563 266.152344 140.441406 268.652344 140.441406 276.734375 C 140.441406 284.730469 134.578125 290.476563 123.664063 290.476563 L 117.855469 290.476563 L 114.3125 306.679688 L 108.511719 306.679688 L 117.335938 266.152344 "/>
<g clip-path="url(#clip3)" clip-rule="nonzero">
<path style=" stroke:none;fill-rule:nonzero;fill:rgb(50.19989%,50.999451%,52.198792%);fill-opacity:1;" d="M 157.222656 302.269531 C 167.214844 302.269531 173.128906 291.53125 173.128906 282.703125 C 173.128906 274.925781 169.644531 270.566406 162.683594 270.566406 C 152.757813 270.566406 146.132813 280.027344 146.132813 290.359375 C 146.132813 297.566406 149.90625 302.269531 157.222656 302.269531 Z M 162.855469 265.457031 C 173.183594 265.457031 179.285156 271.550781 179.285156 281.882813 C 179.285156 294.722656 171.679688 307.382813 156.988281 307.382813 C 145.835938 307.382813 139.980469 301.394531 139.980469 290.183594 C 139.980469 278.699219 147.984375 265.457031 162.855469 265.457031 "/>
</g>
<g clip-path="url(#clip4)" clip-rule="nonzero">
<path style=" stroke:none;fill-rule:nonzero;fill:rgb(13.299561%,12.199402%,12.199402%);fill-opacity:1;" d="M 222.496094 257.558594 C 218.914063 255.726563 214.292969 254.429688 209.855469 254.429688 C 205.507813 254.429688 199.664063 256.175781 199.664063 261.386719 C 199.664063 271.148438 220.398438 270.535156 220.398438 287.433594 C 220.398438 302.332031 208.722656 307.71875 195.398438 307.71875 C 189.566406 307.71875 183.558594 306.335938 178.070313 304.324219 L 181.203125 293.96875 C 185.910156 296.144531 190.871094 298.144531 196.101563 298.144531 C 201.933594 298.144531 207.683594 295.183594 207.683594 288.65625 C 207.683594 277.671875 186.953125 279.421875 186.953125 263.21875 C 186.953125 250.421875 197.929688 244.847656 209.59375 244.847656 C 214.902344 244.847656 220.398438 245.546875 225.363281 247.546875 L 222.496094 257.558594 "/>
</g>
<path style=" stroke:none;fill-rule:nonzero;fill:rgb(13.299561%,12.199402%,12.199402%);fill-opacity:1;" d="M 242.074219 283.160156 L 260.890625 283.160156 L 257.058594 256.683594 L 256.71875 256.683594 Z M 252.269531 245.890625 L 265.765625 245.890625 L 276.832031 306.679688 L 264.636719 306.679688 L 262.546875 292.738281 L 236.6875 292.738281 L 228.929688 306.679688 L 215.425781 306.679688 L 252.269531 245.890625 "/>
<path style=" stroke:none;fill-rule:nonzero;fill:rgb(13.299561%,12.199402%,12.199402%);fill-opacity:1;" d="M 291.785156 245.890625 L 303.984375 245.890625 L 293.097656 297.09375 L 316.964844 297.09375 L 314.875 306.679688 L 278.898438 306.679688 L 291.785156 245.890625 "/>
<path style=" stroke:none;fill-rule:nonzero;fill:rgb(13.299561%,12.199402%,12.199402%);fill-opacity:1;" d="M 333.257813 245.890625 L 345.96875 245.890625 L 333.179688 306.679688 L 320.449219 306.679688 L 333.257813 245.890625 "/>
<path style=" stroke:none;fill-rule:nonzero;fill:rgb(13.299561%,12.199402%,12.199402%);fill-opacity:1;" d="M 350.882813 245.890625 L 366.296875 245.890625 L 379.285156 292.046875 L 379.453125 292.046875 L 389.378906 245.890625 L 400.878906 245.890625 L 387.722656 306.679688 L 372.046875 306.679688 L 359.335938 260.082031 L 359.160156 260.082031 L 349.492188 306.679688 L 337.816406 306.679688 L 350.882813 245.890625 "/>
<path style=" stroke:none;fill-rule:nonzero;fill:rgb(13.299561%,12.199402%,12.199402%);fill-opacity:1;" d="M 414.984375 283.160156 L 433.800781 283.160156 L 429.972656 256.683594 L 429.617188 256.683594 Z M 425.179688 245.890625 L 438.679688 245.890625 L 449.738281 306.679688 L 437.535156 306.679688 L 435.449219 292.738281 L 409.585938 292.738281 L 401.828125 306.679688 L 388.34375 306.679688 L 425.179688 245.890625 "/>
<g clip-path="url(#clip5)" clip-rule="nonzero">
<path style=" stroke:none;fill-rule:nonzero;fill:rgb(13.299561%,12.199402%,12.199402%);fill-opacity:1;" d="M 495.808594 257.558594 C 492.234375 255.726563 487.621094 254.429688 483.1875 254.429688 C 478.824219 254.429688 472.988281 256.175781 472.988281 261.386719 C 472.988281 271.148438 493.714844 270.535156 493.714844 287.433594 C 493.714844 302.332031 482.039063 307.71875 468.726563 307.71875 C 462.890625 307.71875 456.875 306.335938 451.386719 304.324219 L 454.523438 293.96875 C 459.226563 296.144531 464.191406 298.144531 469.425781 298.144531 C 475.253906 298.144531 480.996094 295.183594 480.996094 288.65625 C 480.996094 277.671875 460.285156 279.421875 460.285156 263.21875 C 460.285156 250.421875 471.242188 244.847656 482.914063 244.847656 C 488.230469 244.847656 493.714844 245.546875 498.683594 247.546875 L 495.808594 257.558594 "/>
</g>
<path style=" stroke:none;fill-rule:nonzero;fill:rgb(35.68573%,35.68573%,36.862183%);fill-opacity:1;" d="M 305.46875 113.773438 C 305.46875 98.523438 317.832031 86.160156 333.078125 86.160156 C 348.324219 86.160156 360.691406 98.523438 360.691406 113.773438 C 360.691406 129.023438 348.324219 141.386719 333.078125 141.386719 C 317.832031 141.386719 305.46875 129.023438 305.46875 113.773438 "/>
<path style=" stroke:none;fill-rule:nonzero;fill:rgb(35.68573%,35.68573%,36.862183%);fill-opacity:1;" d="M 295.039063 155.882813 L 295.039063 162.097656 C 295.039063 162.097656 359.929688 185.566406 420.683594 126.890625 L 409.675781 118.550781 C 409.675781 118.550781 362.6875 172.457031 295.039063 155.882813 "/>
<path style=" stroke:none;fill-rule:nonzero;fill:rgb(48.498535%,48.498535%,49.441528%);fill-opacity:1;" d="M 295.039063 169.695313 L 295.039063 175.902344 C 295.039063 175.902344 375.269531 208.765625 443.730469 142.535156 L 432.222656 134.359375 C 432.222656 134.359375 381.085938 192.914063 295.039063 169.695313 "/>
<path style=" stroke:none;fill-rule:nonzero;fill:rgb(55.029297%,55.029297%,55.851746%);fill-opacity:1;" d="M 295.148438 183.105469 L 295.148438 190.375 C 295.148438 190.375 385.5625 235.03125 466.886719 158.808594 L 454.757813 149.980469 C 454.757813 149.980469 393.191406 221.847656 295.148438 183.105469 "/>
<path style=" stroke:none;fill-rule:nonzero;fill:rgb(61.436462%,61.436462%,62.142944%);fill-opacity:1;" d="M 295.214844 198.265625 L 295.214844 205.886719 C 295.214844 205.886719 396.453125 266.234375 490.074219 175.289063 L 478.339844 167.070313 C 478.339844 167.070313 406.148438 253.214844 295.214844 198.265625 "/>
<path style=" stroke:none;fill-rule:nonzero;fill:rgb(50.19989%,50.999451%,52.198792%);fill-opacity:1;" d="M 199.457031 203.898438 L 188.4375 203.898438 L 195.4375 170.773438 L 182.96875 170.773438 L 184.648438 162.972656 C 192.300781 162.605469 198.0625 160.785156 201.789063 152.835938 L 210.25 152.835938 L 199.457031 203.898438 "/>
<path style=" stroke:none;fill-rule:nonzero;fill:rgb(50.19989%,50.999451%,52.198792%);fill-opacity:1;" d="M 224.53125 196.382813 C 234.953125 196.382813 237.878906 176.472656 237.878906 169.539063 C 237.878906 164.429688 235.765625 160.351563 230.445313 160.351563 C 220.152344 160.351563 217.371094 180.261719 217.371094 187.40625 C 217.371094 192.296875 218.835938 196.382813 224.53125 196.382813 Z M 231.171875 151.8125 C 242.691406 151.8125 248.238281 159.695313 248.238281 171.144531 C 248.238281 186.027344 240.351563 204.910156 223.214844 204.910156 C 211.539063 204.910156 207.027344 195.722656 207.027344 185.296875 C 207.027344 170.855469 214.902344 151.8125 231.171875 151.8125 "/>
<path style=" stroke:none;fill-rule:nonzero;fill:rgb(50.19989%,50.999451%,52.198792%);fill-opacity:1;" d="M 265.867188 196.382813 C 276.292969 196.382813 279.214844 176.472656 279.214844 169.539063 C 279.214844 164.429688 277.09375 160.351563 271.773438 160.351563 C 261.488281 160.351563 258.714844 180.261719 258.714844 187.40625 C 258.714844 192.296875 260.179688 196.382813 265.867188 196.382813 Z M 272.503906 151.8125 C 284.019531 151.8125 289.570313 159.695313 289.570313 171.144531 C 289.570313 186.027344 281.699219 204.910156 264.554688 204.910156 C 252.882813 204.910156 248.359375 195.722656 248.359375 185.296875 C 248.359375 170.855469 256.234375 151.8125 272.503906 151.8125 "/>
<path style=" stroke:none;fill-rule:nonzero;fill:rgb(50.19989%,50.999451%,52.198792%);fill-opacity:1;" d="M 221.9375 222.308594 C 220.597656 223.09375 218.996094 223.125 217.480469 223.238281 C 215.472656 223.457031 213.582031 223.949219 213.582031 226.355469 C 213.582031 227.804688 214.957031 228.507813 216.480469 228.507813 C 219.746094 228.507813 220.816406 226.246094 221.421875 224.164063 Z M 210.800781 218.148438 C 211.46875 213.328125 215.550781 211.800781 219.898438 211.800781 C 223.3125 211.800781 227.953125 212.542969 227.878906 216.84375 C 227.878906 217.664063 227.695313 218.890625 227.472656 220.082031 L 225.765625 227.804688 C 225.578125 228.46875 225.503906 229.65625 225.503906 230.40625 C 225.503906 230.738281 225.578125 231.175781 225.6875 231.511719 L 220.421875 231.511719 L 220.421875 229.621094 C 218.96875 231.253906 216.699219 232.035156 214.546875 232.035156 C 210.355469 232.035156 208.308594 229.65625 208.308594 226.984375 C 208.308594 223.308594 211.09375 221.015625 215.660156 220.449219 C 220.636719 219.855469 222.976563 220.113281 222.976563 217.664063 C 222.976563 215.773438 220.96875 215.335938 219.632813 215.335938 C 217.746094 215.335938 216.070313 216.214844 215.734375 218.148438 L 210.800781 218.148438 "/>
<path style=" stroke:none;fill-rule:nonzero;fill:rgb(50.19989%,50.999451%,52.198792%);fill-opacity:1;" d="M 247.851563 206.460938 C 247.59375 207.308594 247.296875 208.347656 246.703125 209.203125 C 246.101563 210.058594 245.222656 210.6875 243.691406 210.6875 C 242.578125 210.6875 241.578125 210.355469 240.652344 210.058594 C 239.722656 209.730469 238.902344 209.429688 238.054688 209.429688 C 237.050781 209.429688 236.714844 210.058594 236.484375 210.988281 L 234.226563 210.988281 C 234.710938 208.832031 235.636719 206.460938 238.902344 206.460938 C 239.757813 206.460938 240.5 206.796875 241.285156 207.089844 C 242.058594 207.425781 242.875 207.75 243.734375 207.75 C 244.84375 207.75 245.324219 207.160156 245.289063 206.460938 Z M 231.59375 212.320313 L 236.636719 212.320313 L 236.042969 214.988281 L 236.128906 214.988281 C 237.824219 212.875 240.09375 211.800781 242.839844 211.800781 C 246.472656 211.800781 248.441406 213.621094 248.441406 216.957031 C 248.441406 217.738281 248.039063 219.59375 247.886719 220.265625 L 245.507813 231.511719 L 240.242188 231.511719 L 242.578125 220.265625 C 242.730469 219.707031 242.921875 218.445313 242.921875 217.925781 C 242.921875 216.78125 241.617188 215.957031 240.386719 215.957031 C 237.195313 215.957031 235.566406 218.628906 235 221.300781 L 232.847656 231.511719 L 227.582031 231.511719 L 231.59375 212.320313 "/>
<path style=" stroke:none;fill-rule:nonzero;fill:rgb(50.19989%,50.999451%,52.198792%);fill-opacity:1;" d="M 258.285156 228.058594 C 262.222656 228.058594 263.925781 223.238281 263.925781 220.003906 C 263.925781 217.445313 262.816406 215.773438 260.0625 215.773438 C 256.203125 215.773438 254.496094 220.523438 254.496094 223.753906 C 254.496094 226.015625 255.796875 228.058594 258.285156 228.058594 Z M 260.246094 211.800781 C 265.519531 211.800781 269.195313 214.398438 269.195313 219.929688 C 269.195313 226.683594 265.003906 232.035156 258.023438 232.035156 C 252.675781 232.035156 249.226563 229.253906 249.226563 223.753906 C 249.226563 217.261719 253.421875 211.800781 260.246094 211.800781 "/>
<path style=" stroke:none;fill-rule:nonzero;fill:rgb(50.19989%,50.999451%,52.198792%);fill-opacity:1;" d="M 282.074219 217.925781 C 282.035156 216.289063 281.113281 215.335938 279.109375 215.335938 C 277.25 215.335938 275.882813 215.847656 275.882813 217.21875 C 275.882813 218.082031 276.507813 218.589844 278.289063 219.15625 L 280.933594 220.003906 C 283.746094 220.9375 285.972656 222.269531 285.972656 225.503906 C 285.972656 230.25 281.261719 232.035156 276.84375 232.035156 C 273.09375 232.035156 268.679688 230.546875 268.679688 226.054688 L 268.679688 225.269531 L 273.578125 225.269531 L 273.578125 225.910156 C 273.578125 227.648438 275.546875 228.507813 277.367188 228.507813 C 278.960938 228.507813 280.703125 227.949219 280.703125 226.199219 C 280.703125 224.871094 279.960938 224.457031 278.808594 224.085938 L 274.765625 222.792969 C 272.132813 221.933594 270.605469 220.894531 270.605469 217.890625 C 270.605469 213.359375 275.394531 211.800781 279.109375 211.800781 C 283.304688 211.800781 287.054688 212.992188 286.984375 217.925781 L 282.074219 217.925781 "/>
<g clip-path="url(#clip6)" clip-rule="nonzero">
<path style=" stroke:none;fill-rule:nonzero;fill:rgb(100%,83.528137%,12.156677%);fill-opacity:1;" d="M 553.386719 186.253906 C 553.386719 235.46875 529.210938 278.984375 492.117188 305.585938 L 505.46875 305.585938 C 543.578125 273.910156 567.867188 226.175781 567.867188 172.738281 C 567.867188 77.328125 490.523438 -0.00390625 395.113281 -0.00390625 C 308.507813 -0.00390625 236.796875 63.730469 224.308594 146.855469 C 229.222656 145.246094 243.046875 144.382813 251.503906 153.933594 C 251.503906 153.933594 255.601563 146.570313 267.054688 145.203125 C 284.394531 83.601563 340.234375 39.558594 407.175781 39.558594 C 487.933594 39.558594 553.386719 105.234375 553.386719 186.253906 "/>
</g>
</g>
</svg>
